<svg id="visual" viewBox="0 0 900 600" width="900" height="600" xmlns="http://www.w3.org/2000/svg" xmlns:xlink="http://www.w3.org/1999/xlink" version="1.1"><rect x="0" y="0" width="900" height="600" fill="#FFFFFF"></rect><defs><linearGradient id="grad1_0" x1="33.3%" y1="100%" x2="100%" y2="0%"><stop offset="20%" stop-color="#ffffff" stop-opacity="1"></stop><stop offset="80%" stop-color="#ffffff" stop-opacity="1"></stop></linearGradient></defs><defs><linearGradient id="grad2_0" x1="0%" y1="100%" x2="66.7%" y2="0%"><stop offset="20%" stop-color="#ffffff" stop-opacity="1"></stop><stop offset="80%" stop-color="#ffffff" stop-opacity="1"></stop></linearGradient></defs><g transform="translate(900, 600)"><path d="M-270.4 0C-267.5 -36.3 -264.6 -72.6 -249.8 -103.5C-235.1 -134.3 -208.4 -159.7 -181.7 -181.7C-155 -203.7 -128.3 -222.3 -98 -236.5C-67.7 -250.7 -33.8 -260.6 0 -270.4L0 0Z" fill="#536dfe"></path></g><g transform="translate(0, 0)"><path d="M270.4 0C271.2 40 272 80 249.8 103.5C227.6 127 182.5 134 155.6 155.6C128.7 177.1 120.1 213.1 97.2 234.7C74.3 256.2 37.2 263.3 0 270.4L0 0Z" fill="#536dfe"></path></g></svg>