<?xml version="1.0" encoding="iso-8859-1"?>
<!-- Generator: Adobe Illustrator 19.0.0, SVG Export Plug-In . SVG Version: 6.00 Build 0)  -->
<svg version="1.1" id="Layer_1" xmlns="http://www.w3.org/2000/svg" xmlns:xlink="http://www.w3.org/1999/xlink" x="0px" y="0px"
	 viewBox="0 0 512 512" style="enable-background:new 0 0 512 512;" xml:space="preserve">
<path style="fill:#111449;" d="M334.979,336.284l-21.787,9.085l95.319,158.459h32.681
	C441.192,429.805,397.759,365.925,334.979,336.284z"/>
<path style="fill:#27467A;" d="M408.511,503.828c0-67.181-29.456-125.996-73.532-158.459l-78.979,53.186l-78.979-62.271
	c-62.78,29.642-106.213,93.522-106.213,167.544h106.213l78.979-57.602l78.979,57.602H408.511z"/>
<path style="fill:#F0FEFF;" d="M292.524,322.248h-73.046c-14.872,2.978-29.101,7.732-42.456,14.039V503.83h157.957V336.287
	C321.625,329.982,307.394,325.227,292.524,322.248z"/>
<path style="fill:#FF0F47;" d="M292.525,322.247c-11.809-2.362-24.02-3.609-36.524-3.609l-10.894,49.021l10.894,136.17
	l32.681-37.559l-16.34-98.611L292.525,322.247z"/>
<path style="fill:#FF6176;" d="M219.476,322.247l20.184,45.412l-16.34,98.611l32.681,37.559V318.638
	C243.497,318.638,231.285,319.886,219.476,322.247z"/>
<circle cx="367.66" cy="471.149" r="8.17"/>
<circle cx="367.66" cy="438.468" r="8.17"/>
<path style="fill:#FFBE35;" d="M256.001,8.17l4.037,261.954l36.976-16.847l10.2-40.007c34.345-18.33,57.723-54.514,57.723-96.164
	C364.937,56.942,316.165,8.17,256.001,8.17z"/>
<path style="fill:#FFDB8A;" d="M271.88,223.67c34.492-10.438,60.376-54.179,60.376-106.564c0-60.164-34.141-108.936-76.255-108.936
	c-60.164,0-108.936,48.772-108.936,108.936c0,41.651,23.378,77.835,57.724,96.164l10.2,40.007l45.049,16.847L271.88,223.67z"/>
<path style="fill:#88ACB5;" d="M264.332,253.278l-24.672,32.681h32.681c8.987,0,18.156-7.126,20.378-15.834l4.295-16.847H264.332z"
	/>
<path style="fill:#A7CBCF;" d="M260.038,270.125l4.295-16.847h-49.344l4.295,16.847c2.22,8.708,11.39,15.834,20.378,15.834
	C248.649,285.959,257.816,278.833,260.038,270.125z"/>
<path style="fill:#FFFFFF;" d="M266.894,228.767h-21.787c-3.573,0-6.732-2.323-7.798-5.733l-27.234-87.149
	c-1.087-3.478,0.26-7.255,3.303-9.26c3.044-2.008,7.046-1.752,9.812,0.619l13.744,11.781l13.746-11.781
	c3.06-2.623,7.574-2.623,10.634,0l13.748,11.783l13.749-11.783c2.768-2.374,6.77-2.623,9.812-0.619
	c3.043,2.004,4.39,5.782,3.303,9.26l-27.234,87.149C273.626,226.445,270.467,228.767,266.894,228.767z M251.114,212.427h9.775
	l17.202-55.049c-2.755,1.1-5.984,0.638-8.345-1.386l-13.748-11.783l-13.746,11.783c-2.36,2.022-5.585,2.486-8.34,1.388
	L251.114,212.427z"/>
<path d="M256.001,310.468c-106.62,0-193.362,86.742-193.362,193.362c0,4.513,3.657,8.17,8.17,8.17s8.17-3.657,8.17-8.17
	c0-65.947,36.254-123.579,89.872-154.035V503.83c0,4.513,3.657,8.17,8.17,8.17s8.17-3.657,8.17-8.17V341.605
	c9.447-4.14,19.319-7.477,29.535-9.926l16.472,37.062l-15.941,96.195c-0.398,2.404,0.297,4.861,1.897,6.698l32.681,37.559
	c1.553,1.783,3.801,2.806,6.165,2.806c2.364,0,4.611-1.023,6.164-2.807l32.681-37.559c1.599-1.839,2.294-4.294,1.897-6.698
	l-15.941-96.195l16.472-37.062c10.216,2.45,20.089,5.788,29.535,9.926V503.83c0,4.513,3.657,8.17,8.17,8.17s8.17-3.657,8.17-8.17
	V349.795c53.618,30.456,89.872,88.088,89.872,154.035c0,4.513,3.657,8.17,8.17,8.17c4.513,0,8.17-3.657,8.17-8.17
	C449.362,397.21,362.621,310.468,256.001,310.468z M256.001,491.383L232.01,463.81l14.579-87.98h18.825l14.579,87.981
	L256.001,491.383z M267.031,359.489H244.97l-13.75-30.938c8.1-1.139,16.371-1.743,24.782-1.743s16.681,0.603,24.782,1.743
	L267.031,359.489z"/>
<path d="M197.743,218.709l6.813,26.723c-3.411,0.982-5.909,4.119-5.909,7.847c0,4.513,3.657,8.17,8.17,8.17h1.823l2.727,10.693
	c3.142,12.329,15.569,21.988,28.294,21.988h32.681c12.725,0,25.152-9.657,28.294-21.987l2.727-10.694h1.823
	c4.513,0,8.17-3.657,8.17-8.17c0-3.728-2.498-6.865-5.909-7.847l6.813-26.723c36.396-20.887,58.848-59.484,58.848-101.603
	C373.107,52.534,320.572,0,256.001,0S138.894,52.534,138.894,117.106C138.894,159.224,161.347,197.822,197.743,218.709z
	 M284.801,268.107c-1.292,5.067-7.23,9.681-12.46,9.681H239.66c-5.23,0-11.168-4.613-12.46-9.682l-1.697-6.658h60.996
	L284.801,268.107z M256.001,16.34c55.563,0,100.766,45.203,100.766,100.766c0,37.292-20.461,71.378-53.402,88.956
	c-2.025,1.082-3.503,2.965-4.07,5.191l-8.631,33.854h-69.327l-8.631-33.854c-0.568-2.226-2.045-4.108-4.07-5.191
	c-32.94-17.578-53.402-51.664-53.402-88.956C155.235,61.543,200.438,16.34,256.001,16.34z"/>
<g>
</g>
<g>
</g>
<g>
</g>
<g>
</g>
<g>
</g>
<g>
</g>
<g>
</g>
<g>
</g>
<g>
</g>
<g>
</g>
<g>
</g>
<g>
</g>
<g>
</g>
<g>
</g>
<g>
</g>
</svg>
