<?xml version="1.0" encoding="iso-8859-1"?>
<!-- Generator: Adobe Illustrator 19.0.0, SVG Export Plug-In . SVG Version: 6.00 Build 0)  -->
<svg version="1.1" id="Layer_1" xmlns="http://www.w3.org/2000/svg" xmlns:xlink="http://www.w3.org/1999/xlink" x="0px" y="0px"
	 viewBox="0 0 356.7 356.7" style="enable-background:new 0 0 356.7 356.7;" xml:space="preserve">
<g>
	<g>
		<rect x="129.091" y="306.204" style="fill:#C3C6C8;" width="98.516" height="18.71"/>
		<polygon style="fill:#7D868C;" points="205.78,264.537 150.917,264.537 143.706,306.204 212.992,306.204 		"/>
		<path style="fill:#333E48;" d="M7.5,247.293V51.787c0-11,9-20,20-20h301.699c11,0,20,9,20,20v195.506L7.5,247.293L7.5,247.293z"/>
		<rect x="27.5" y="51.787" style="fill:#1E252B;" width="301.699" height="186.5"/>
		<polygon style="opacity:0.05;fill:#A4A9AD;enable-background:new    ;" points="199.871,51.787 27.5,224.158 27.5,238.286 
			200.246,238.286 329.199,109.334 329.199,51.787 		"/>
		<path style="fill:#C3C6C8;" d="M7.5,234.286v13.006c0,11,9,20,20,20h301.699c11,0,20-9,20-20v-13.006H7.5z"/>
	</g>
	<path style="fill:#071C2C;" d="M178.35,258.626c4.328,0,7.836-3.508,7.836-7.836s-3.508-7.836-7.836-7.836
		s-7.836,3.508-7.836,7.836S174.022,258.626,178.35,258.626z M329.199,24.287H27.5c-15.164,0-27.5,12.336-27.5,27.5v195.506
		c0,15.164,12.336,27.5,27.5,27.5h114.03l-4.138,23.911h-8.301c-4.142,0-7.5,3.358-7.5,7.5v18.71c0,4.142,3.358,7.5,7.5,7.5h98.516
		c4.142,0,7.5-3.358,7.5-7.5v-18.71c0-4.142-3.358-7.5-7.5-7.5h-8.301l-4.138-23.911H329.2c15.164,0,27.5-12.336,27.5-27.5V51.787
		C356.699,36.624,344.363,24.287,329.199,24.287z M220.107,313.704v3.71h-83.516v-3.71H220.107z M152.615,298.704l4.139-23.911
		h43.191l4.139,23.911H152.615z M341.699,247.293c0,6.893-5.607,12.5-12.5,12.5H27.5c-6.893,0-12.5-5.607-12.5-12.5v-5.506h326.699
		V247.293z M35,226.786v-167.5h286.699v167.5H35z M341.699,226.786h-5v-175c0-4.142-3.358-7.5-7.5-7.5H27.5
		c-4.142,0-7.5,3.358-7.5,7.5v175h-5v-175c0-6.893,5.607-12.5,12.5-12.5h301.699c6.893,0,12.5,5.607,12.5,12.5V226.786z"/>
</g>
<g>
</g>
<g>
</g>
<g>
</g>
<g>
</g>
<g>
</g>
<g>
</g>
<g>
</g>
<g>
</g>
<g>
</g>
<g>
</g>
<g>
</g>
<g>
</g>
<g>
</g>
<g>
</g>
<g>
</g>
</svg>
