<svg id="visual" viewBox="0 0 960 540" width="960" height="540" xmlns="http://www.w3.org/2000/svg" xmlns:xlink="http://www.w3.org/1999/xlink" version="1.1"><path d="M0 158L17.8 153.5C35.7 149 71.3 140 106.8 134.5C142.3 129 177.7 127 213.2 125.2C248.7 123.3 284.3 121.7 320 120.8C355.7 120 391.3 120 426.8 119C462.3 118 497.7 116 533.2 119.5C568.7 123 604.3 132 640 131.2C675.7 130.3 711.3 119.7 746.8 118C782.3 116.3 817.7 123.7 853.2 125.5C888.7 127.3 924.3 123.7 942.2 121.8L960 120L960 0L942.2 0C924.3 0 888.7 0 853.2 0C817.7 0 782.3 0 746.8 0C711.3 0 675.7 0 640 0C604.3 0 568.7 0 533.2 0C497.7 0 462.3 0 426.8 0C391.3 0 355.7 0 320 0C284.3 0 248.7 0 213.2 0C177.7 0 142.3 0 106.8 0C71.3 0 35.7 0 17.8 0L0 0Z" fill="#3e4c5f"></path><path d="M0 314L17.8 310.5C35.7 307 71.3 300 106.8 304.5C142.3 309 177.7 325 213.2 325.8C248.7 326.7 284.3 312.3 320 303.3C355.7 294.3 391.3 290.7 426.8 295.2C462.3 299.7 497.7 312.3 533.2 316C568.7 319.7 604.3 314.3 640 312.5C675.7 310.7 711.3 312.3 746.8 309.7C782.3 307 817.7 300 853.2 300C888.7 300 924.3 307 942.2 310.5L960 314L960 118L942.2 119.8C924.3 121.7 888.7 125.3 853.2 123.5C817.7 121.7 782.3 114.3 746.8 116C711.3 117.7 675.7 128.3 640 129.2C604.3 130 568.7 121 533.2 117.5C497.7 114 462.3 116 426.8 117C391.3 118 355.7 118 320 118.8C284.3 119.7 248.7 121.3 213.2 123.2C177.7 125 142.3 127 106.8 132.5C71.3 138 35.7 147 17.8 151.5L0 156Z" fill="#1f2937"></path><path d="M0 541L17.8 541C35.7 541 71.3 541 106.8 541C142.3 541 177.7 541 213.2 541C248.7 541 284.3 541 320 541C355.7 541 391.3 541 426.8 541C462.3 541 497.7 541 533.2 541C568.7 541 604.3 541 640 541C675.7 541 711.3 541 746.8 541C782.3 541 817.7 541 853.2 541C888.7 541 924.3 541 942.2 541L960 541L960 312L942.2 308.5C924.3 305 888.7 298 853.2 298C817.7 298 782.3 305 746.8 307.7C711.3 310.3 675.7 308.7 640 310.5C604.3 312.3 568.7 317.7 533.2 314C497.7 310.3 462.3 297.7 426.8 293.2C391.3 288.7 355.7 292.3 320 301.3C284.3 310.3 248.7 324.7 213.2 323.8C177.7 323 142.3 307 106.8 302.5C71.3 298 35.7 305 17.8 308.5L0 312Z" fill="#191f29"></path></svg>