<?xml version="1.0" encoding="iso-8859-1"?>
<!-- Generator: Adobe Illustrator 19.0.0, SVG Export Plug-In . SVG Version: 6.00 Build 0)  -->
<svg version="1.1" id="Layer_1" xmlns="http://www.w3.org/2000/svg" xmlns:xlink="http://www.w3.org/1999/xlink" x="0px" y="0px"
	 viewBox="0 0 491.52 491.52" style="enable-background:new 0 0 491.52 491.52;" xml:space="preserve">
<g>
	<g>
		<path d="M410.9,192.2C409.45,85.97,321.71,0,214.065,0C105.52,0,17.21,87.42,17.26,193.89c-0.27,2.78-6.065,68.89,41.085,136.09
			c20.265,28.88,33.38,56.52,40.085,84.49c4.545,18.95,7.845,51.35,7.845,77.05h20.48c0-27.1-3.535-61.52-8.405-81.83
			c-7.325-30.52-21.47-60.44-43.245-91.47C32.495,257.48,37.59,196.46,37.69,194.88c0-96.16,79.12-174.4,176.375-174.4
			S390.44,98.72,390.44,194.88v2.65l49.42,89.19H395.8v92.16h-81.92v112.64h20.48v-92.16h81.92V307.2h58.34L410.9,192.2z"/>
	</g>
</g>
<g>
	<g>
		<path d="M313.76,94.22C286.625,66.48,250.3,51.2,211.48,51.2c-38.82,0-75.145,15.28-102.255,42.99
			C82.72,121.1,68.12,156.74,68.12,194.56s14.6,73.46,41.08,100.34c27.135,27.74,63.46,43.02,102.28,43.02
			c38.82,0,75.145-15.28,102.255-42.99c26.505-26.91,41.105-62.55,41.105-100.37S340.24,121.1,313.76,94.22z M299.12,280.58
			c-23.25,23.77-54.375,36.86-87.64,36.86c-33.265,0-64.39-13.09-87.665-36.89C101.105,257.5,88.6,226.96,88.6,194.56
			s12.505-62.94,35.24-86.02c23.25-23.77,54.375-36.86,87.64-36.86c33.265,0,64.39,13.09,87.665,36.89
			c22.71,23.05,35.215,53.59,35.215,85.99S321.855,257.5,299.12,280.58z"/>
	</g>
</g>
<g>
	<g>
		<path d="M250.63,115.2c-14.165-11.68-32.81-16.37-51.095-12.8c-23.985,4.65-43.24,23.9-47.905,47.9l20.1,3.9
			c3.09-15.88,15.83-28.62,31.7-31.7c12.495-2.38,24.61,0.61,34.165,8.5c9.435,7.78,14.845,19.25,14.845,31.46
			c0,13.51-6.675,26.12-17.865,33.73c-20.75,14.13-33.135,36.93-33.135,60.98h20.48c0-17.27,9.04-33.74,24.18-44.05
			c16.795-11.42,26.82-30.36,26.82-50.66C272.92,144.11,264.795,126.89,250.63,115.2z"/>
	</g>
</g>
<g>
	<g>
		<rect x="201.24" y="276.48" width="20.48" height="20.48"/>
	</g>
</g>
<g>
</g>
<g>
</g>
<g>
</g>
<g>
</g>
<g>
</g>
<g>
</g>
<g>
</g>
<g>
</g>
<g>
</g>
<g>
</g>
<g>
</g>
<g>
</g>
<g>
</g>
<g>
</g>
<g>
</g>
</svg>
