<svg id="visual" viewBox="0 0 900 600" width="900" height="600" xmlns="http://www.w3.org/2000/svg" xmlns:xlink="http://www.w3.org/1999/xlink" version="1.1"><rect x="0" y="0" width="900" height="600" fill="#6EC6EB"></rect><g fill="none" stroke="#297EA6" stroke-width="4"><path d="M0 -111.4L25 -34.4L105.9 -34.4L40.5 13.1L65.5 90.1L0 42.5L-65.5 90.1L-40.5 13.1L-105.9 -34.4L-25 -34.4Z" transform="translate(108 557)"></path><path d="M0 -49.1L11 -15.2L46.7 -15.2L17.8 5.8L28.8 39.7L0 18.7L-28.8 39.7L-17.8 5.8L-46.7 -15.2L-11 -15.2Z" transform="translate(549 316)"></path><path d="M0 -84L18.9 -26L79.9 -26L30.5 9.9L49.4 68L0 32.1L-49.4 68L-30.5 9.9L-79.9 -26L-18.9 -26Z" transform="translate(261 130)"></path><path d="M0 -88.7L19.9 -27.4L84.4 -27.4L32.2 10.5L52.1 71.8L0 33.9L-52.1 71.8L-32.2 10.5L-84.4 -27.4L-19.9 -27.4Z" transform="translate(862 576)"></path></g></svg>